# xmcd
#
# Track frame offsets:
#	150
#	24304
#	41988
#	57250
#	75858
#	92423
#	107659
#	127918
#	145742
#	170220
#	196773
#	215115
#	234348
#	252423
#	270293
#
# Disc length: 3919 seconds
#
# Revision: 2
# Processed by: cddbd v1.5.2PL0 Copyright (c) Steve Scherf et al.
# Submitted via: EZCDAudioConverter 7.2.0.1
#
DISCID=c30f4d0f
DTITLE=Various Artist - '80s Soul | Gold [CD1]
DYEAR=2006
DGENRE=R&B, Soul
TTITLE0=Diana Ross - I'm Coming Out
TTITLE1=Carl Carlton - She's A Bad Mama Jama (She's Built, She's Stacked)
TTITLE2=Rick James - Super Freak
TTITLE3=Smokey Robinson - Being With You
TTITLE4=Billy Preston and Syreeta - With You I'm Born Again
TTITLE5=The Four Tops - When She Was My Girl
TTITLE6=Dazz Band - Let It Whip
TTITLE7=The Gap Band - Early In The Morning
TTITLE8=One Way - Cutie Pie
TTITLE9=Debarge - All This Love
TTITLE10=Dennis Edwards (Featuring Seidah Garrett) - Don't Look Any Further
TTITLE11=The Temptations - Treat Her Like A Lady
TTITLE12=New Edition - Mr. Telephone Man
TTITLE13=Rockwell - Somebody's Watching Me
TTITLE14=Klymaxx - Meeting In The Ladies Room
EXTD=
EXTT0=
EXTT1=
EXTT2=
EXTT3=
EXTT4=
EXTT5=
EXTT6=
EXTT7=
EXTT8=
EXTT9=
EXTT10=
EXTT11=
EXTT12=
EXTT13=
EXTT14=
PLAYORDER=
